<mxfile host="app.diagrams.net" modified="2020-08-24T20:59:35.242Z" agent="5.0 (Windows NT 6.1; Win64; x64) AppleWebKit/537.36 (KHTML, like Gecko) Chrome/84.0.4147.135 Safari/537.36" etag="023T64rXHFFAZda09CiY" version="13.6.5" type="github" pages="2">
  <diagram name="UJP Xendit KLIX" id="12e1b939-464a-85fe-373e-61e167be1490">
    <mxGraphModel dx="806" dy="522" grid="1" gridSize="10" guides="1" tooltips="1" connect="1" arrows="1" fold="1" page="1" pageScale="1.5" pageWidth="1169" pageHeight="826" background="#ffffff" math="0" shadow="0">
      <root>
        <mxCell id="0" />
        <mxCell id="1" parent="0" />
        <mxCell id="60da8b9f42644d3a-3" value="ATTRACT" style="text;html=1;strokeColor=none;fillColor=none;align=center;verticalAlign=middle;whiteSpace=wrap;rounded=0;shadow=0;fontSize=27;fontColor=#FFFFFF;fontStyle=1" parent="1" vertex="1">
          <mxGeometry x="316" y="425" width="280" height="60" as="geometry" />
        </mxCell>
        <mxCell id="60da8b9f42644d3a-6" value="" style="line;strokeWidth=2;html=1;rounded=0;shadow=0;fontSize=27;align=center;fillColor=none;strokeColor=#FFFFFF;" parent="1" vertex="1">
          <mxGeometry x="336" y="485" width="240" height="10" as="geometry" />
        </mxCell>
        <mxCell id="60da8b9f42644d3a-7" value="" style="line;strokeWidth=2;html=1;rounded=0;shadow=0;fontSize=27;align=center;fillColor=none;strokeColor=#FFFFFF;" parent="1" vertex="1">
          <mxGeometry x="336" y="705" width="240" height="10" as="geometry" />
        </mxCell>
        <mxCell id="60da8b9f42644d3a-18" value="CONVERT" style="text;html=1;strokeColor=none;fillColor=none;align=center;verticalAlign=middle;whiteSpace=wrap;rounded=0;shadow=0;fontSize=27;fontColor=#FFFFFF;fontStyle=1" parent="1" vertex="1">
          <mxGeometry x="596" y="425" width="280" height="60" as="geometry" />
        </mxCell>
        <mxCell id="60da8b9f42644d3a-20" value="" style="line;strokeWidth=2;html=1;rounded=0;shadow=0;fontSize=27;align=center;fillColor=none;strokeColor=#FFFFFF;" parent="1" vertex="1">
          <mxGeometry x="616" y="485" width="240" height="10" as="geometry" />
        </mxCell>
        <mxCell id="60da8b9f42644d3a-21" value="" style="line;strokeWidth=2;html=1;rounded=0;shadow=0;fontSize=27;align=center;fillColor=none;strokeColor=#FFFFFF;" parent="1" vertex="1">
          <mxGeometry x="616" y="705" width="240" height="10" as="geometry" />
        </mxCell>
        <mxCell id="60da8b9f42644d3a-25" value="CLOSE" style="text;html=1;strokeColor=none;fillColor=none;align=center;verticalAlign=middle;whiteSpace=wrap;rounded=0;shadow=0;fontSize=27;fontColor=#FFFFFF;fontStyle=1" parent="1" vertex="1">
          <mxGeometry x="876" y="425" width="280" height="60" as="geometry" />
        </mxCell>
        <mxCell id="60da8b9f42644d3a-27" value="" style="line;strokeWidth=2;html=1;rounded=0;shadow=0;fontSize=27;align=center;fillColor=none;strokeColor=#FFFFFF;" parent="1" vertex="1">
          <mxGeometry x="896" y="485" width="240" height="10" as="geometry" />
        </mxCell>
        <mxCell id="60da8b9f42644d3a-28" value="" style="line;strokeWidth=2;html=1;rounded=0;shadow=0;fontSize=27;align=center;fillColor=none;strokeColor=#FFFFFF;" parent="1" vertex="1">
          <mxGeometry x="896" y="705" width="240" height="10" as="geometry" />
        </mxCell>
        <mxCell id="60da8b9f42644d3a-32" value="DELIGHT" style="text;html=1;strokeColor=none;fillColor=none;align=center;verticalAlign=middle;whiteSpace=wrap;rounded=0;shadow=0;fontSize=27;fontColor=#FFFFFF;fontStyle=1" parent="1" vertex="1">
          <mxGeometry x="1156" y="425" width="280" height="60" as="geometry" />
        </mxCell>
        <mxCell id="60da8b9f42644d3a-34" value="" style="line;strokeWidth=2;html=1;rounded=0;shadow=0;fontSize=27;align=center;fillColor=none;strokeColor=#FFFFFF;" parent="1" vertex="1">
          <mxGeometry x="1176" y="485" width="240" height="10" as="geometry" />
        </mxCell>
        <mxCell id="60da8b9f42644d3a-35" value="" style="line;strokeWidth=2;html=1;rounded=0;shadow=0;fontSize=27;align=center;fillColor=none;strokeColor=#FFFFFF;" parent="1" vertex="1">
          <mxGeometry x="1176" y="705" width="240" height="10" as="geometry" />
        </mxCell>
        <mxCell id="1FVJCchedxoUWGoeablg-1" value="" style="rounded=1;whiteSpace=wrap;html=1;fillColor=#fad7ac;strokeColor=#b46504;" parent="1" vertex="1">
          <mxGeometry x="110" y="41" width="1530" height="150" as="geometry" />
        </mxCell>
        <mxCell id="1FVJCchedxoUWGoeablg-2" value="" style="rounded=1;whiteSpace=wrap;html=1;fillColor=#dae8fc;strokeColor=#6c8ebf;" parent="1" vertex="1">
          <mxGeometry x="115" y="230" width="1525" height="150" as="geometry" />
        </mxCell>
        <mxCell id="1FVJCchedxoUWGoeablg-3" value="" style="rounded=1;whiteSpace=wrap;html=1;fillColor=#d5e8d4;strokeColor=#82b366;" parent="1" vertex="1">
          <mxGeometry x="110" y="415" width="1530" height="150" as="geometry" />
        </mxCell>
        <mxCell id="1FVJCchedxoUWGoeablg-4" value="" style="rounded=1;whiteSpace=wrap;html=1;fillColor=#e1d5e7;strokeColor=#9673a6;" parent="1" vertex="1">
          <mxGeometry x="112" y="610" width="1530" height="150" as="geometry" />
        </mxCell>
        <mxCell id="1FVJCchedxoUWGoeablg-5" value="" style="rounded=1;whiteSpace=wrap;html=1;fillColor=#f8cecc;strokeColor=#b85450;" parent="1" vertex="1">
          <mxGeometry x="110" y="800" width="1530" height="150" as="geometry" />
        </mxCell>
        <mxCell id="1FVJCchedxoUWGoeablg-8" value="&lt;span style=&quot;color: rgba(0 , 0 , 0 , 0) ; font-family: monospace ; font-size: 0px&quot;&gt;%3CmxGraphModel%3E%3Croot%3E%3CmxCell%20id%3D%220%22%2F%3E%3CmxCell%20id%3D%221%22%20parent%3D%220%22%2F%3E%3CmxCell%20id%3D%222%22%20value%3D%22KLIX%22%20style%3D%22shape%3DumlActor%3BverticalLabelPosition%3Dbottom%3BverticalAlign%3Dtop%3Bhtml%3D1%3BoutlineConnect%3D0%3B%22%20vertex%3D%221%22%20parent%3D%221%22%3E%3CmxGeometry%20x%3D%22220%22%20y%3D%2270%22%20width%3D%2230%22%20height%3D%2260%22%20as%3D%22geometry%22%2F%3E%3C%2FmxCell%3E%3C%2Froot%3E%3C%2FmxGraphModel%3E&lt;/span&gt;" style="shape=offPageConnector;whiteSpace=wrap;html=1;size=0.5;fillColor=#fff2cc;strokeColor=#d6b656;" parent="1" vertex="1">
          <mxGeometry x="130" y="60" width="90" height="110" as="geometry" />
        </mxCell>
        <mxCell id="1FVJCchedxoUWGoeablg-9" value="" style="shape=umlActor;verticalLabelPosition=bottom;verticalAlign=top;html=1;outlineConnect=0;strokeColor=#6666FF;fillColor=#FFA845;" parent="1" vertex="1">
          <mxGeometry x="159" y="85" width="30" height="60" as="geometry" />
        </mxCell>
        <mxCell id="1FVJCchedxoUWGoeablg-10" value="&lt;span style=&quot;color: rgba(0 , 0 , 0 , 0) ; font-family: monospace ; font-size: 0px&quot;&gt;%3CmxGraphModel%3E%3Croot%3E%3CmxCell%20id%3D%220%22%2F%3E%3CmxCell%20id%3D%221%22%20parent%3D%220%22%2F%3E%3CmxCell%20id%3D%222%22%20value%3D%22KLIX%22%20style%3D%22shape%3DumlActor%3BverticalLabelPosition%3Dbottom%3BverticalAlign%3Dtop%3Bhtml%3D1%3BoutlineConnect%3D0%3B%22%20vertex%3D%221%22%20parent%3D%221%22%3E%3CmxGeometry%20x%3D%22220%22%20y%3D%2270%22%20width%3D%2230%22%20height%3D%2260%22%20as%3D%22geometry%22%2F%3E%3C%2FmxCell%3E%3C%2Froot%3E%3C%2FmxGraphModel%3E&lt;/span&gt;" style="shape=offPageConnector;whiteSpace=wrap;html=1;size=0.5;fillColor=#fff2cc;strokeColor=#d6b656;" parent="1" vertex="1">
          <mxGeometry x="129" y="250" width="90" height="110" as="geometry" />
        </mxCell>
        <mxCell id="1FVJCchedxoUWGoeablg-11" value="" style="shape=umlActor;verticalLabelPosition=bottom;verticalAlign=top;html=1;outlineConnect=0;strokeColor=#6666FF;fillColor=#FFA845;" parent="1" vertex="1">
          <mxGeometry x="159" y="275" width="30" height="60" as="geometry" />
        </mxCell>
        <mxCell id="1FVJCchedxoUWGoeablg-13" value="&lt;span style=&quot;color: rgba(0 , 0 , 0 , 0) ; font-family: monospace ; font-size: 0px&quot;&gt;%3CmxGraphModel%3E%3Croot%3E%3CmxCell%20id%3D%220%22%2F%3E%3CmxCell%20id%3D%221%22%20parent%3D%220%22%2F%3E%3CmxCell%20id%3D%222%22%20value%3D%22KLIX%22%20style%3D%22shape%3DumlActor%3BverticalLabelPosition%3Dbottom%3BverticalAlign%3Dtop%3Bhtml%3D1%3BoutlineConnect%3D0%3B%22%20vertex%3D%221%22%20parent%3D%221%22%3E%3CmxGeometry%20x%3D%22220%22%20y%3D%2270%22%20width%3D%2230%22%20height%3D%2260%22%20as%3D%22geometry%22%2F%3E%3C%2FmxCell%3E%3C%2Froot%3E%3C%2FmxGraphModel%3E&lt;/span&gt;" style="shape=offPageConnector;whiteSpace=wrap;html=1;size=0.5;fillColor=#fff2cc;strokeColor=#d6b656;" parent="1" vertex="1">
          <mxGeometry x="129" y="435" width="90" height="110" as="geometry" />
        </mxCell>
        <mxCell id="1FVJCchedxoUWGoeablg-14" value="" style="shape=umlActor;verticalLabelPosition=bottom;verticalAlign=top;html=1;outlineConnect=0;strokeColor=#6666FF;fillColor=#FFA845;" parent="1" vertex="1">
          <mxGeometry x="159" y="460" width="30" height="60" as="geometry" />
        </mxCell>
        <mxCell id="1FVJCchedxoUWGoeablg-15" value="&lt;span style=&quot;color: rgba(0 , 0 , 0 , 0) ; font-family: monospace ; font-size: 0px&quot;&gt;%3CmxGraphModel%3E%3Croot%3E%3CmxCell%20id%3D%220%22%2F%3E%3CmxCell%20id%3D%221%22%20parent%3D%220%22%2F%3E%3CmxCell%20id%3D%222%22%20value%3D%22KLIX%22%20style%3D%22shape%3DumlActor%3BverticalLabelPosition%3Dbottom%3BverticalAlign%3Dtop%3Bhtml%3D1%3BoutlineConnect%3D0%3B%22%20vertex%3D%221%22%20parent%3D%221%22%3E%3CmxGeometry%20x%3D%22220%22%20y%3D%2270%22%20width%3D%2230%22%20height%3D%2260%22%20as%3D%22geometry%22%2F%3E%3C%2FmxCell%3E%3C%2Froot%3E%3C%2FmxGraphModel%3E&lt;/span&gt;" style="shape=offPageConnector;whiteSpace=wrap;html=1;size=0.5;fillColor=#fff2cc;strokeColor=#d6b656;" parent="1" vertex="1">
          <mxGeometry x="129" y="630" width="90" height="110" as="geometry" />
        </mxCell>
        <mxCell id="1FVJCchedxoUWGoeablg-16" value="" style="shape=umlActor;verticalLabelPosition=bottom;verticalAlign=top;html=1;outlineConnect=0;strokeColor=#6666FF;fillColor=#FFA845;" parent="1" vertex="1">
          <mxGeometry x="159" y="655" width="30" height="60" as="geometry" />
        </mxCell>
        <mxCell id="1FVJCchedxoUWGoeablg-17" value="&lt;span style=&quot;color: rgba(0 , 0 , 0 , 0) ; font-family: monospace ; font-size: 0px&quot;&gt;%3CmxGraphModel%3E%3Croot%3E%3CmxCell%20id%3D%220%22%2F%3E%3CmxCell%20id%3D%221%22%20parent%3D%220%22%2F%3E%3CmxCell%20id%3D%222%22%20value%3D%22KLIX%22%20style%3D%22shape%3DumlActor%3BverticalLabelPosition%3Dbottom%3BverticalAlign%3Dtop%3Bhtml%3D1%3BoutlineConnect%3D0%3B%22%20vertex%3D%221%22%20parent%3D%221%22%3E%3CmxGeometry%20x%3D%22220%22%20y%3D%2270%22%20width%3D%2230%22%20height%3D%2260%22%20as%3D%22geometry%22%2F%3E%3C%2FmxCell%3E%3C%2Froot%3E%3C%2FmxGraphModel%3E&lt;/span&gt;" style="shape=offPageConnector;whiteSpace=wrap;html=1;size=0.5;fillColor=#fff2cc;strokeColor=#d6b656;" parent="1" vertex="1">
          <mxGeometry x="129" y="820" width="90" height="110" as="geometry" />
        </mxCell>
        <mxCell id="1FVJCchedxoUWGoeablg-18" value="" style="shape=umlActor;verticalLabelPosition=bottom;verticalAlign=top;html=1;outlineConnect=0;strokeColor=#6666FF;fillColor=#FFA845;" parent="1" vertex="1">
          <mxGeometry x="159" y="845" width="30" height="60" as="geometry" />
        </mxCell>
        <mxCell id="1FVJCchedxoUWGoeablg-19" value="&lt;b&gt;Customer&lt;/b&gt;" style="text;html=1;strokeColor=none;fillColor=none;align=center;verticalAlign=middle;whiteSpace=wrap;rounded=0;" parent="1" vertex="1">
          <mxGeometry x="155" y="820" width="40" height="20" as="geometry" />
        </mxCell>
        <mxCell id="1FVJCchedxoUWGoeablg-21" value="&lt;b&gt;BGV&lt;/b&gt;" style="text;html=1;strokeColor=none;fillColor=none;align=center;verticalAlign=middle;whiteSpace=wrap;rounded=0;" parent="1" vertex="1">
          <mxGeometry x="155" y="630" width="40" height="20" as="geometry" />
        </mxCell>
        <mxCell id="1FVJCchedxoUWGoeablg-22" value="&lt;b&gt;KVISION&lt;/b&gt;" style="text;html=1;strokeColor=none;fillColor=none;align=center;verticalAlign=middle;whiteSpace=wrap;rounded=0;" parent="1" vertex="1">
          <mxGeometry x="154" y="435" width="40" height="20" as="geometry" />
        </mxCell>
        <mxCell id="1FVJCchedxoUWGoeablg-24" value="&lt;b&gt;XENDIT&lt;/b&gt;" style="text;html=1;strokeColor=none;fillColor=none;align=center;verticalAlign=middle;whiteSpace=wrap;rounded=0;" parent="1" vertex="1">
          <mxGeometry x="155" y="250" width="40" height="20" as="geometry" />
        </mxCell>
        <mxCell id="1FVJCchedxoUWGoeablg-25" value="&lt;b&gt;KLIX&lt;/b&gt;" style="text;html=1;strokeColor=none;fillColor=none;align=center;verticalAlign=middle;whiteSpace=wrap;rounded=0;" parent="1" vertex="1">
          <mxGeometry x="155" y="61" width="40" height="20" as="geometry" />
        </mxCell>
        <mxCell id="1FVJCchedxoUWGoeablg-29" style="edgeStyle=orthogonalEdgeStyle;rounded=0;orthogonalLoop=1;jettySize=auto;html=1;exitX=0.5;exitY=0;exitDx=0;exitDy=0;" parent="1" source="1FVJCchedxoUWGoeablg-26" target="1FVJCchedxoUWGoeablg-27" edge="1">
          <mxGeometry relative="1" as="geometry" />
        </mxCell>
        <mxCell id="1FVJCchedxoUWGoeablg-26" value="Fill Register Form" style="rounded=0;whiteSpace=wrap;html=1;strokeColor=#666666;fillColor=#f5f5f5;fontColor=#333333;" parent="1" vertex="1">
          <mxGeometry x="240" y="840" width="70" height="55" as="geometry" />
        </mxCell>
        <mxCell id="1FVJCchedxoUWGoeablg-30" style="edgeStyle=orthogonalEdgeStyle;rounded=0;orthogonalLoop=1;jettySize=auto;html=1;exitX=1;exitY=0.5;exitDx=0;exitDy=0;entryX=0;entryY=0.5;entryDx=0;entryDy=0;" parent="1" source="1FVJCchedxoUWGoeablg-27" target="1FVJCchedxoUWGoeablg-28" edge="1">
          <mxGeometry relative="1" as="geometry" />
        </mxCell>
        <mxCell id="1FVJCchedxoUWGoeablg-27" value="Submit Register Form" style="rounded=0;whiteSpace=wrap;html=1;strokeColor=#666666;fillColor=#f5f5f5;fontColor=#333333;" parent="1" vertex="1">
          <mxGeometry x="240" y="80" width="70" height="55" as="geometry" />
        </mxCell>
        <mxCell id="1FVJCchedxoUWGoeablg-62" style="edgeStyle=orthogonalEdgeStyle;rounded=0;orthogonalLoop=1;jettySize=auto;html=1;exitX=0.5;exitY=1;exitDx=0;exitDy=0;" parent="1" source="1FVJCchedxoUWGoeablg-28" target="1FVJCchedxoUWGoeablg-37" edge="1">
          <mxGeometry relative="1" as="geometry" />
        </mxCell>
        <mxCell id="1FVJCchedxoUWGoeablg-28" value="Create Invoce &amp;amp; Send Notification" style="rounded=0;whiteSpace=wrap;html=1;strokeColor=#666666;fillColor=#f5f5f5;fontColor=#333333;" parent="1" vertex="1">
          <mxGeometry x="340" y="80" width="100" height="55" as="geometry" />
        </mxCell>
        <mxCell id="1FVJCchedxoUWGoeablg-36" style="edgeStyle=orthogonalEdgeStyle;rounded=0;orthogonalLoop=1;jettySize=auto;html=1;exitX=0.5;exitY=0;exitDx=0;exitDy=0;entryX=0.5;entryY=1;entryDx=0;entryDy=0;" parent="1" source="1FVJCchedxoUWGoeablg-33" target="1FVJCchedxoUWGoeablg-34" edge="1">
          <mxGeometry relative="1" as="geometry" />
        </mxCell>
        <mxCell id="1FVJCchedxoUWGoeablg-33" value="Pay Invoice" style="rounded=0;whiteSpace=wrap;html=1;strokeColor=#666666;fillColor=#f5f5f5;fontColor=#333333;" parent="1" vertex="1">
          <mxGeometry x="496" y="842.5" width="100" height="55" as="geometry" />
        </mxCell>
        <mxCell id="1FVJCchedxoUWGoeablg-41" style="edgeStyle=orthogonalEdgeStyle;rounded=0;orthogonalLoop=1;jettySize=auto;html=1;exitX=1;exitY=0.5;exitDx=0;exitDy=0;entryX=0;entryY=0.5;entryDx=0;entryDy=0;" parent="1" source="1FVJCchedxoUWGoeablg-34" target="1FVJCchedxoUWGoeablg-39" edge="1">
          <mxGeometry relative="1" as="geometry">
            <Array as="points">
              <mxPoint x="610" y="302" />
              <mxPoint x="610" y="680" />
            </Array>
          </mxGeometry>
        </mxCell>
        <mxCell id="1FVJCchedxoUWGoeablg-42" style="edgeStyle=orthogonalEdgeStyle;rounded=0;orthogonalLoop=1;jettySize=auto;html=1;exitX=1;exitY=0.5;exitDx=0;exitDy=0;entryX=0;entryY=0.5;entryDx=0;entryDy=0;" parent="1" source="1FVJCchedxoUWGoeablg-34" target="1FVJCchedxoUWGoeablg-38" edge="1">
          <mxGeometry relative="1" as="geometry">
            <Array as="points">
              <mxPoint x="610" y="302" />
              <mxPoint x="610" y="485" />
            </Array>
          </mxGeometry>
        </mxCell>
        <mxCell id="1FVJCchedxoUWGoeablg-44" style="edgeStyle=orthogonalEdgeStyle;rounded=0;orthogonalLoop=1;jettySize=auto;html=1;exitX=0.5;exitY=0;exitDx=0;exitDy=0;entryX=0.5;entryY=1;entryDx=0;entryDy=0;" parent="1" source="1FVJCchedxoUWGoeablg-34" target="1FVJCchedxoUWGoeablg-43" edge="1">
          <mxGeometry relative="1" as="geometry" />
        </mxCell>
        <mxCell id="1FVJCchedxoUWGoeablg-34" value="Payment Received" style="rounded=0;whiteSpace=wrap;html=1;strokeColor=#666666;fillColor=#f5f5f5;fontColor=#333333;" parent="1" vertex="1">
          <mxGeometry x="496" y="275" width="100" height="55" as="geometry" />
        </mxCell>
        <mxCell id="1FVJCchedxoUWGoeablg-63" style="edgeStyle=orthogonalEdgeStyle;rounded=0;orthogonalLoop=1;jettySize=auto;html=1;exitX=1;exitY=0.5;exitDx=0;exitDy=0;entryX=0;entryY=0.5;entryDx=0;entryDy=0;" parent="1" source="1FVJCchedxoUWGoeablg-37" target="1FVJCchedxoUWGoeablg-33" edge="1">
          <mxGeometry relative="1" as="geometry" />
        </mxCell>
        <mxCell id="1FVJCchedxoUWGoeablg-37" value="Get Invoice" style="shape=parallelogram;perimeter=parallelogramPerimeter;whiteSpace=wrap;html=1;fixedSize=1;strokeColor=#666666;fillColor=#f5f5f5;fontColor=#333333;" parent="1" vertex="1">
          <mxGeometry x="330" y="840" width="120" height="60" as="geometry" />
        </mxCell>
        <mxCell id="1FVJCchedxoUWGoeablg-38" value="Get Payment" style="shape=parallelogram;perimeter=parallelogramPerimeter;whiteSpace=wrap;html=1;fixedSize=1;strokeColor=#666666;fillColor=#f5f5f5;fontColor=#333333;" parent="1" vertex="1">
          <mxGeometry x="630" y="455" width="120" height="60" as="geometry" />
        </mxCell>
        <mxCell id="1FVJCchedxoUWGoeablg-39" value="Get Payment" style="shape=parallelogram;perimeter=parallelogramPerimeter;whiteSpace=wrap;html=1;fixedSize=1;strokeColor=#666666;fillColor=#f5f5f5;fontColor=#333333;" parent="1" vertex="1">
          <mxGeometry x="630" y="650" width="120" height="60" as="geometry" />
        </mxCell>
        <mxCell id="1FVJCchedxoUWGoeablg-46" style="edgeStyle=orthogonalEdgeStyle;rounded=0;orthogonalLoop=1;jettySize=auto;html=1;exitX=1;exitY=0.5;exitDx=0;exitDy=0;entryX=0;entryY=0.5;entryDx=0;entryDy=0;" parent="1" source="1FVJCchedxoUWGoeablg-43" target="1FVJCchedxoUWGoeablg-45" edge="1">
          <mxGeometry relative="1" as="geometry" />
        </mxCell>
        <mxCell id="1FVJCchedxoUWGoeablg-43" value="Get Payment Notification" style="rounded=0;whiteSpace=wrap;html=1;strokeColor=#666666;fillColor=#f5f5f5;fontColor=#333333;" parent="1" vertex="1">
          <mxGeometry x="486" y="80" width="120" height="60" as="geometry" />
        </mxCell>
        <mxCell id="1FVJCchedxoUWGoeablg-48" style="edgeStyle=orthogonalEdgeStyle;rounded=0;orthogonalLoop=1;jettySize=auto;html=1;exitX=0.5;exitY=1;exitDx=0;exitDy=0;" parent="1" source="1FVJCchedxoUWGoeablg-45" target="1FVJCchedxoUWGoeablg-47" edge="1">
          <mxGeometry relative="1" as="geometry" />
        </mxCell>
        <mxCell id="1FVJCchedxoUWGoeablg-45" value="Send Notification to Distributor" style="rounded=0;whiteSpace=wrap;html=1;strokeColor=#666666;fillColor=#f5f5f5;fontColor=#333333;" parent="1" vertex="1">
          <mxGeometry x="780" y="80" width="120" height="60" as="geometry" />
        </mxCell>
        <mxCell id="1FVJCchedxoUWGoeablg-50" style="edgeStyle=orthogonalEdgeStyle;rounded=0;orthogonalLoop=1;jettySize=auto;html=1;exitX=1;exitY=0.5;exitDx=0;exitDy=0;entryX=0;entryY=0.5;entryDx=0;entryDy=0;" parent="1" source="1FVJCchedxoUWGoeablg-47" target="1FVJCchedxoUWGoeablg-49" edge="1">
          <mxGeometry relative="1" as="geometry" />
        </mxCell>
        <mxCell id="1FVJCchedxoUWGoeablg-47" value="Get Notification &amp;amp; Update Stock STB" style="rounded=0;whiteSpace=wrap;html=1;strokeColor=#666666;fillColor=#f5f5f5;fontColor=#333333;" parent="1" vertex="1">
          <mxGeometry x="780" y="650" width="120" height="60" as="geometry" />
        </mxCell>
        <mxCell id="1FVJCchedxoUWGoeablg-53" style="edgeStyle=orthogonalEdgeStyle;rounded=0;orthogonalLoop=1;jettySize=auto;html=1;exitX=0.5;exitY=1;exitDx=0;exitDy=0;entryX=0.5;entryY=0;entryDx=0;entryDy=0;" parent="1" source="1FVJCchedxoUWGoeablg-49" target="1FVJCchedxoUWGoeablg-51" edge="1">
          <mxGeometry relative="1" as="geometry" />
        </mxCell>
        <mxCell id="1FVJCchedxoUWGoeablg-49" value="Send STB to Customer" style="rounded=0;whiteSpace=wrap;html=1;strokeColor=#666666;fillColor=#f5f5f5;fontColor=#333333;" parent="1" vertex="1">
          <mxGeometry x="940" y="650" width="120" height="60" as="geometry" />
        </mxCell>
        <mxCell id="1FVJCchedxoUWGoeablg-54" style="edgeStyle=orthogonalEdgeStyle;rounded=0;orthogonalLoop=1;jettySize=auto;html=1;exitX=1;exitY=0.5;exitDx=0;exitDy=0;entryX=0;entryY=0.5;entryDx=0;entryDy=0;" parent="1" source="1FVJCchedxoUWGoeablg-51" target="1FVJCchedxoUWGoeablg-52" edge="1">
          <mxGeometry relative="1" as="geometry" />
        </mxCell>
        <mxCell id="1FVJCchedxoUWGoeablg-51" value="Get STB" style="rounded=0;whiteSpace=wrap;html=1;strokeColor=#666666;fillColor=#f5f5f5;fontColor=#333333;" parent="1" vertex="1">
          <mxGeometry x="940" y="837.5" width="120" height="60" as="geometry" />
        </mxCell>
        <mxCell id="1FVJCchedxoUWGoeablg-56" style="edgeStyle=orthogonalEdgeStyle;rounded=0;orthogonalLoop=1;jettySize=auto;html=1;exitX=0.5;exitY=0;exitDx=0;exitDy=0;" parent="1" source="1FVJCchedxoUWGoeablg-52" target="1FVJCchedxoUWGoeablg-55" edge="1">
          <mxGeometry relative="1" as="geometry" />
        </mxCell>
        <mxCell id="1FVJCchedxoUWGoeablg-52" value="Activation by. Email,Phone,IMEI" style="rounded=0;whiteSpace=wrap;html=1;strokeColor=#666666;fillColor=#f5f5f5;fontColor=#333333;" parent="1" vertex="1">
          <mxGeometry x="1090" y="837.5" width="120" height="60" as="geometry" />
        </mxCell>
        <mxCell id="1FVJCchedxoUWGoeablg-59" style="edgeStyle=orthogonalEdgeStyle;rounded=0;orthogonalLoop=1;jettySize=auto;html=1;exitX=1;exitY=0.5;exitDx=0;exitDy=0;entryX=0;entryY=0.5;entryDx=0;entryDy=0;" parent="1" source="1FVJCchedxoUWGoeablg-55" target="1FVJCchedxoUWGoeablg-57" edge="1">
          <mxGeometry relative="1" as="geometry" />
        </mxCell>
        <mxCell id="1FVJCchedxoUWGoeablg-55" value="Verify User Activation Data" style="rounded=0;whiteSpace=wrap;html=1;strokeColor=#666666;fillColor=#f5f5f5;fontColor=#333333;" parent="1" vertex="1">
          <mxGeometry x="1090" y="77.5" width="120" height="60" as="geometry" />
        </mxCell>
        <mxCell id="1FVJCchedxoUWGoeablg-60" style="edgeStyle=orthogonalEdgeStyle;rounded=0;orthogonalLoop=1;jettySize=auto;html=1;exitX=0.5;exitY=1;exitDx=0;exitDy=0;" parent="1" source="1FVJCchedxoUWGoeablg-57" target="1FVJCchedxoUWGoeablg-58" edge="1">
          <mxGeometry relative="1" as="geometry" />
        </mxCell>
        <mxCell id="1FVJCchedxoUWGoeablg-64" style="edgeStyle=orthogonalEdgeStyle;rounded=0;orthogonalLoop=1;jettySize=auto;html=1;exitX=1;exitY=0.5;exitDx=0;exitDy=0;entryX=0;entryY=0.5;entryDx=0;entryDy=0;" parent="1" source="1FVJCchedxoUWGoeablg-57" target="1FVJCchedxoUWGoeablg-61" edge="1">
          <mxGeometry relative="1" as="geometry" />
        </mxCell>
        <mxCell id="1FVJCchedxoUWGoeablg-57" value="Register User Data to KVISION System" style="rounded=0;whiteSpace=wrap;html=1;strokeColor=#666666;fillColor=#f5f5f5;fontColor=#333333;" parent="1" vertex="1">
          <mxGeometry x="1250" y="77.5" width="120" height="60" as="geometry" />
        </mxCell>
        <mxCell id="1FVJCchedxoUWGoeablg-58" value="Verify User Data" style="rounded=0;whiteSpace=wrap;html=1;strokeColor=#666666;fillColor=#f5f5f5;fontColor=#333333;" parent="1" vertex="1">
          <mxGeometry x="1250" y="460" width="120" height="60" as="geometry" />
        </mxCell>
        <mxCell id="1FVJCchedxoUWGoeablg-67" style="edgeStyle=orthogonalEdgeStyle;rounded=0;orthogonalLoop=1;jettySize=auto;html=1;exitX=1;exitY=0.5;exitDx=0;exitDy=0;entryX=0;entryY=0.5;entryDx=0;entryDy=0;" parent="1" source="1FVJCchedxoUWGoeablg-61" target="1FVJCchedxoUWGoeablg-66" edge="1">
          <mxGeometry relative="1" as="geometry" />
        </mxCell>
        <mxCell id="1FVJCchedxoUWGoeablg-61" value="User Data Approved" style="rounded=0;whiteSpace=wrap;html=1;strokeColor=#666666;fillColor=#f5f5f5;fontColor=#333333;" parent="1" vertex="1">
          <mxGeometry x="1410" y="77.5" width="74" height="60" as="geometry" />
        </mxCell>
        <mxCell id="1FVJCchedxoUWGoeablg-69" style="edgeStyle=orthogonalEdgeStyle;rounded=0;orthogonalLoop=1;jettySize=auto;html=1;exitX=0.5;exitY=1;exitDx=0;exitDy=0;entryX=0.5;entryY=0;entryDx=0;entryDy=0;" parent="1" source="1FVJCchedxoUWGoeablg-66" target="1FVJCchedxoUWGoeablg-68" edge="1">
          <mxGeometry relative="1" as="geometry" />
        </mxCell>
        <mxCell id="1FVJCchedxoUWGoeablg-66" value="Send Notification Activication Success to Costomer" style="rounded=0;whiteSpace=wrap;html=1;strokeColor=#666666;fillColor=#f5f5f5;fontColor=#333333;" parent="1" vertex="1">
          <mxGeometry x="1510" y="62.5" width="120" height="90" as="geometry" />
        </mxCell>
        <mxCell id="1FVJCchedxoUWGoeablg-68" value="Activation Success" style="rounded=0;whiteSpace=wrap;html=1;strokeColor=#666666;fillColor=#f5f5f5;fontColor=#333333;" parent="1" vertex="1">
          <mxGeometry x="1510" y="840" width="120" height="60" as="geometry" />
        </mxCell>
        <mxCell id="1FVJCchedxoUWGoeablg-70" value="Note :&lt;br&gt;1. User register by Filling in the data : name, email, phone number, PIN, address, package , payment method&lt;br&gt;2. User can Activate STB with : Phone number, Email, IMEI" style="shape=process;whiteSpace=wrap;html=1;backgroundOutline=1;strokeColor=#d6b656;fillColor=#fff2cc;align=left;size=0.028662420382165606;" parent="1" vertex="1">
          <mxGeometry x="110" y="980" width="628" height="60" as="geometry" />
        </mxCell>
        <mxCell id="1FVJCchedxoUWGoeablg-71" value="Modules Requirements :&lt;br&gt;1. Register user for checkout package from KVISION and STB from BGV.&lt;br&gt;2. Create an invoice and send to customer email.&lt;br&gt;3. List data of user who purchased a packaged.&lt;br&gt;4. Notification system if the user has already paid.&lt;br&gt;5. Notification system to BGV and KVISION if distribusing is completed.&lt;br&gt;6. Notification system to BGV to immediately send STB.&lt;br&gt;7. BGV submit RESI No. if STB already send to customer.&lt;br&gt;8. Notification system to customer that, the STB has been sent.&lt;br&gt;9. Activate STB by email, phone, IMEI, PIN&lt;br&gt;10. List of Channel Package" style="shape=process;whiteSpace=wrap;html=1;backgroundOutline=1;strokeColor=#b85450;fillColor=#f8cecc;align=left;size=0.028662420382165606;" parent="1" vertex="1">
          <mxGeometry x="112" y="1050" width="628" height="170" as="geometry" />
        </mxCell>
        <mxCell id="H-S9CO4ECzIzvbvzj5g0-1" value="&lt;font style=&quot;font-size: 18px&quot;&gt;User Journey Payment KLIX in Indonesia&lt;/font&gt;" style="rounded=1;whiteSpace=wrap;html=1;strokeColor=#666666;fillColor=#f5f5f5;fontColor=#333333;" parent="1" vertex="1">
          <mxGeometry x="1030" y="980" width="380" height="60" as="geometry" />
        </mxCell>
      </root>
    </mxGraphModel>
  </diagram>
  <diagram id="G5UpdDcre4exv2pnfds-" name="UJP BillPlz KLIX">
    <mxGraphModel dx="806" dy="522" grid="1" gridSize="10" guides="1" tooltips="1" connect="1" arrows="1" fold="1" page="1" pageScale="1" pageWidth="850" pageHeight="1100" math="0" shadow="0">
      <root>
        <mxCell id="1UT6SWbpMoqs8P5vgi1c-0" />
        <mxCell id="1UT6SWbpMoqs8P5vgi1c-1" parent="1UT6SWbpMoqs8P5vgi1c-0" />
        <mxCell id="KNuhM5XpgAfBslxbORyO-0" value="ATTRACT" style="text;html=1;strokeColor=none;fillColor=none;align=center;verticalAlign=middle;whiteSpace=wrap;rounded=0;shadow=0;fontSize=27;fontColor=#FFFFFF;fontStyle=1" parent="1UT6SWbpMoqs8P5vgi1c-1" vertex="1">
          <mxGeometry x="316" y="425" width="280" height="60" as="geometry" />
        </mxCell>
        <mxCell id="KNuhM5XpgAfBslxbORyO-1" value="" style="line;strokeWidth=2;html=1;rounded=0;shadow=0;fontSize=27;align=center;fillColor=none;strokeColor=#FFFFFF;" parent="1UT6SWbpMoqs8P5vgi1c-1" vertex="1">
          <mxGeometry x="336" y="485" width="240" height="10" as="geometry" />
        </mxCell>
        <mxCell id="KNuhM5XpgAfBslxbORyO-2" value="" style="line;strokeWidth=2;html=1;rounded=0;shadow=0;fontSize=27;align=center;fillColor=none;strokeColor=#FFFFFF;" parent="1UT6SWbpMoqs8P5vgi1c-1" vertex="1">
          <mxGeometry x="336" y="705" width="240" height="10" as="geometry" />
        </mxCell>
        <mxCell id="KNuhM5XpgAfBslxbORyO-3" value="CONVERT" style="text;html=1;strokeColor=none;fillColor=none;align=center;verticalAlign=middle;whiteSpace=wrap;rounded=0;shadow=0;fontSize=27;fontColor=#FFFFFF;fontStyle=1" parent="1UT6SWbpMoqs8P5vgi1c-1" vertex="1">
          <mxGeometry x="596" y="425" width="280" height="60" as="geometry" />
        </mxCell>
        <mxCell id="KNuhM5XpgAfBslxbORyO-4" value="" style="line;strokeWidth=2;html=1;rounded=0;shadow=0;fontSize=27;align=center;fillColor=none;strokeColor=#FFFFFF;" parent="1UT6SWbpMoqs8P5vgi1c-1" vertex="1">
          <mxGeometry x="616" y="485" width="240" height="10" as="geometry" />
        </mxCell>
        <mxCell id="KNuhM5XpgAfBslxbORyO-5" value="" style="line;strokeWidth=2;html=1;rounded=0;shadow=0;fontSize=27;align=center;fillColor=none;strokeColor=#FFFFFF;" parent="1UT6SWbpMoqs8P5vgi1c-1" vertex="1">
          <mxGeometry x="616" y="705" width="240" height="10" as="geometry" />
        </mxCell>
        <mxCell id="KNuhM5XpgAfBslxbORyO-6" value="CLOSE" style="text;html=1;strokeColor=none;fillColor=none;align=center;verticalAlign=middle;whiteSpace=wrap;rounded=0;shadow=0;fontSize=27;fontColor=#FFFFFF;fontStyle=1" parent="1UT6SWbpMoqs8P5vgi1c-1" vertex="1">
          <mxGeometry x="876" y="425" width="280" height="60" as="geometry" />
        </mxCell>
        <mxCell id="KNuhM5XpgAfBslxbORyO-7" value="" style="line;strokeWidth=2;html=1;rounded=0;shadow=0;fontSize=27;align=center;fillColor=none;strokeColor=#FFFFFF;" parent="1UT6SWbpMoqs8P5vgi1c-1" vertex="1">
          <mxGeometry x="896" y="485" width="240" height="10" as="geometry" />
        </mxCell>
        <mxCell id="KNuhM5XpgAfBslxbORyO-8" value="" style="line;strokeWidth=2;html=1;rounded=0;shadow=0;fontSize=27;align=center;fillColor=none;strokeColor=#FFFFFF;" parent="1UT6SWbpMoqs8P5vgi1c-1" vertex="1">
          <mxGeometry x="896" y="705" width="240" height="10" as="geometry" />
        </mxCell>
        <mxCell id="KNuhM5XpgAfBslxbORyO-9" value="DELIGHT" style="text;html=1;strokeColor=none;fillColor=none;align=center;verticalAlign=middle;whiteSpace=wrap;rounded=0;shadow=0;fontSize=27;fontColor=#FFFFFF;fontStyle=1" parent="1UT6SWbpMoqs8P5vgi1c-1" vertex="1">
          <mxGeometry x="1156" y="425" width="280" height="60" as="geometry" />
        </mxCell>
        <mxCell id="KNuhM5XpgAfBslxbORyO-10" value="" style="line;strokeWidth=2;html=1;rounded=0;shadow=0;fontSize=27;align=center;fillColor=none;strokeColor=#FFFFFF;" parent="1UT6SWbpMoqs8P5vgi1c-1" vertex="1">
          <mxGeometry x="1176" y="485" width="240" height="10" as="geometry" />
        </mxCell>
        <mxCell id="KNuhM5XpgAfBslxbORyO-11" value="" style="line;strokeWidth=2;html=1;rounded=0;shadow=0;fontSize=27;align=center;fillColor=none;strokeColor=#FFFFFF;" parent="1UT6SWbpMoqs8P5vgi1c-1" vertex="1">
          <mxGeometry x="1176" y="705" width="240" height="10" as="geometry" />
        </mxCell>
        <mxCell id="KNuhM5XpgAfBslxbORyO-12" value="" style="rounded=1;whiteSpace=wrap;html=1;fillColor=#fad7ac;strokeColor=#b46504;" parent="1UT6SWbpMoqs8P5vgi1c-1" vertex="1">
          <mxGeometry x="110" y="41" width="1530" height="150" as="geometry" />
        </mxCell>
        <mxCell id="KNuhM5XpgAfBslxbORyO-13" value="" style="rounded=1;whiteSpace=wrap;html=1;fillColor=#dae8fc;strokeColor=#6c8ebf;" parent="1UT6SWbpMoqs8P5vgi1c-1" vertex="1">
          <mxGeometry x="115" y="230" width="1525" height="150" as="geometry" />
        </mxCell>
        <mxCell id="KNuhM5XpgAfBslxbORyO-14" value="" style="rounded=1;whiteSpace=wrap;html=1;fillColor=#d5e8d4;strokeColor=#82b366;" parent="1UT6SWbpMoqs8P5vgi1c-1" vertex="1">
          <mxGeometry x="110" y="415" width="1530" height="150" as="geometry" />
        </mxCell>
        <mxCell id="KNuhM5XpgAfBslxbORyO-15" value="" style="rounded=1;whiteSpace=wrap;html=1;fillColor=#e1d5e7;strokeColor=#9673a6;" parent="1UT6SWbpMoqs8P5vgi1c-1" vertex="1">
          <mxGeometry x="112" y="610" width="1530" height="150" as="geometry" />
        </mxCell>
        <mxCell id="KNuhM5XpgAfBslxbORyO-16" value="" style="rounded=1;whiteSpace=wrap;html=1;fillColor=#f8cecc;strokeColor=#b85450;" parent="1UT6SWbpMoqs8P5vgi1c-1" vertex="1">
          <mxGeometry x="110" y="800" width="1530" height="150" as="geometry" />
        </mxCell>
        <mxCell id="KNuhM5XpgAfBslxbORyO-17" value="&lt;span style=&quot;color: rgba(0 , 0 , 0 , 0) ; font-family: monospace ; font-size: 0px&quot;&gt;%3CmxGraphModel%3E%3Croot%3E%3CmxCell%20id%3D%220%22%2F%3E%3CmxCell%20id%3D%221%22%20parent%3D%220%22%2F%3E%3CmxCell%20id%3D%222%22%20value%3D%22KLIX%22%20style%3D%22shape%3DumlActor%3BverticalLabelPosition%3Dbottom%3BverticalAlign%3Dtop%3Bhtml%3D1%3BoutlineConnect%3D0%3B%22%20vertex%3D%221%22%20parent%3D%221%22%3E%3CmxGeometry%20x%3D%22220%22%20y%3D%2270%22%20width%3D%2230%22%20height%3D%2260%22%20as%3D%22geometry%22%2F%3E%3C%2FmxCell%3E%3C%2Froot%3E%3C%2FmxGraphModel%3E&lt;/span&gt;" style="shape=offPageConnector;whiteSpace=wrap;html=1;size=0.5;fillColor=#fff2cc;strokeColor=#d6b656;" parent="1UT6SWbpMoqs8P5vgi1c-1" vertex="1">
          <mxGeometry x="130" y="60" width="90" height="110" as="geometry" />
        </mxCell>
        <mxCell id="KNuhM5XpgAfBslxbORyO-18" value="" style="shape=umlActor;verticalLabelPosition=bottom;verticalAlign=top;html=1;outlineConnect=0;strokeColor=#6666FF;fillColor=#FFA845;" parent="1UT6SWbpMoqs8P5vgi1c-1" vertex="1">
          <mxGeometry x="159" y="85" width="30" height="60" as="geometry" />
        </mxCell>
        <mxCell id="KNuhM5XpgAfBslxbORyO-19" value="&lt;span style=&quot;color: rgba(0 , 0 , 0 , 0) ; font-family: monospace ; font-size: 0px&quot;&gt;%3CmxGraphModel%3E%3Croot%3E%3CmxCell%20id%3D%220%22%2F%3E%3CmxCell%20id%3D%221%22%20parent%3D%220%22%2F%3E%3CmxCell%20id%3D%222%22%20value%3D%22KLIX%22%20style%3D%22shape%3DumlActor%3BverticalLabelPosition%3Dbottom%3BverticalAlign%3Dtop%3Bhtml%3D1%3BoutlineConnect%3D0%3B%22%20vertex%3D%221%22%20parent%3D%221%22%3E%3CmxGeometry%20x%3D%22220%22%20y%3D%2270%22%20width%3D%2230%22%20height%3D%2260%22%20as%3D%22geometry%22%2F%3E%3C%2FmxCell%3E%3C%2Froot%3E%3C%2FmxGraphModel%3E&lt;/span&gt;" style="shape=offPageConnector;whiteSpace=wrap;html=1;size=0.5;fillColor=#fff2cc;strokeColor=#d6b656;" parent="1UT6SWbpMoqs8P5vgi1c-1" vertex="1">
          <mxGeometry x="129" y="250" width="90" height="110" as="geometry" />
        </mxCell>
        <mxCell id="KNuhM5XpgAfBslxbORyO-20" value="" style="shape=umlActor;verticalLabelPosition=bottom;verticalAlign=top;html=1;outlineConnect=0;strokeColor=#6666FF;fillColor=#FFA845;" parent="1UT6SWbpMoqs8P5vgi1c-1" vertex="1">
          <mxGeometry x="159" y="275" width="30" height="60" as="geometry" />
        </mxCell>
        <mxCell id="KNuhM5XpgAfBslxbORyO-21" value="&lt;span style=&quot;color: rgba(0 , 0 , 0 , 0) ; font-family: monospace ; font-size: 0px&quot;&gt;%3CmxGraphModel%3E%3Croot%3E%3CmxCell%20id%3D%220%22%2F%3E%3CmxCell%20id%3D%221%22%20parent%3D%220%22%2F%3E%3CmxCell%20id%3D%222%22%20value%3D%22KLIX%22%20style%3D%22shape%3DumlActor%3BverticalLabelPosition%3Dbottom%3BverticalAlign%3Dtop%3Bhtml%3D1%3BoutlineConnect%3D0%3B%22%20vertex%3D%221%22%20parent%3D%221%22%3E%3CmxGeometry%20x%3D%22220%22%20y%3D%2270%22%20width%3D%2230%22%20height%3D%2260%22%20as%3D%22geometry%22%2F%3E%3C%2FmxCell%3E%3C%2Froot%3E%3C%2FmxGraphModel%3E&lt;/span&gt;" style="shape=offPageConnector;whiteSpace=wrap;html=1;size=0.5;fillColor=#fff2cc;strokeColor=#d6b656;" parent="1UT6SWbpMoqs8P5vgi1c-1" vertex="1">
          <mxGeometry x="129" y="435" width="90" height="110" as="geometry" />
        </mxCell>
        <mxCell id="KNuhM5XpgAfBslxbORyO-22" value="" style="shape=umlActor;verticalLabelPosition=bottom;verticalAlign=top;html=1;outlineConnect=0;strokeColor=#6666FF;fillColor=#FFA845;" parent="1UT6SWbpMoqs8P5vgi1c-1" vertex="1">
          <mxGeometry x="159" y="460" width="30" height="60" as="geometry" />
        </mxCell>
        <mxCell id="KNuhM5XpgAfBslxbORyO-23" value="&lt;span style=&quot;color: rgba(0 , 0 , 0 , 0) ; font-family: monospace ; font-size: 0px&quot;&gt;%3CmxGraphModel%3E%3Croot%3E%3CmxCell%20id%3D%220%22%2F%3E%3CmxCell%20id%3D%221%22%20parent%3D%220%22%2F%3E%3CmxCell%20id%3D%222%22%20value%3D%22KLIX%22%20style%3D%22shape%3DumlActor%3BverticalLabelPosition%3Dbottom%3BverticalAlign%3Dtop%3Bhtml%3D1%3BoutlineConnect%3D0%3B%22%20vertex%3D%221%22%20parent%3D%221%22%3E%3CmxGeometry%20x%3D%22220%22%20y%3D%2270%22%20width%3D%2230%22%20height%3D%2260%22%20as%3D%22geometry%22%2F%3E%3C%2FmxCell%3E%3C%2Froot%3E%3C%2FmxGraphModel%3E&lt;/span&gt;" style="shape=offPageConnector;whiteSpace=wrap;html=1;size=0.5;fillColor=#fff2cc;strokeColor=#d6b656;" parent="1UT6SWbpMoqs8P5vgi1c-1" vertex="1">
          <mxGeometry x="129" y="630" width="90" height="110" as="geometry" />
        </mxCell>
        <mxCell id="KNuhM5XpgAfBslxbORyO-24" value="" style="shape=umlActor;verticalLabelPosition=bottom;verticalAlign=top;html=1;outlineConnect=0;strokeColor=#6666FF;fillColor=#FFA845;" parent="1UT6SWbpMoqs8P5vgi1c-1" vertex="1">
          <mxGeometry x="159" y="655" width="30" height="60" as="geometry" />
        </mxCell>
        <mxCell id="KNuhM5XpgAfBslxbORyO-25" value="&lt;span style=&quot;color: rgba(0 , 0 , 0 , 0) ; font-family: monospace ; font-size: 0px&quot;&gt;%3CmxGraphModel%3E%3Croot%3E%3CmxCell%20id%3D%220%22%2F%3E%3CmxCell%20id%3D%221%22%20parent%3D%220%22%2F%3E%3CmxCell%20id%3D%222%22%20value%3D%22KLIX%22%20style%3D%22shape%3DumlActor%3BverticalLabelPosition%3Dbottom%3BverticalAlign%3Dtop%3Bhtml%3D1%3BoutlineConnect%3D0%3B%22%20vertex%3D%221%22%20parent%3D%221%22%3E%3CmxGeometry%20x%3D%22220%22%20y%3D%2270%22%20width%3D%2230%22%20height%3D%2260%22%20as%3D%22geometry%22%2F%3E%3C%2FmxCell%3E%3C%2Froot%3E%3C%2FmxGraphModel%3E&lt;/span&gt;" style="shape=offPageConnector;whiteSpace=wrap;html=1;size=0.5;fillColor=#fff2cc;strokeColor=#d6b656;" parent="1UT6SWbpMoqs8P5vgi1c-1" vertex="1">
          <mxGeometry x="129" y="820" width="90" height="110" as="geometry" />
        </mxCell>
        <mxCell id="KNuhM5XpgAfBslxbORyO-26" value="" style="shape=umlActor;verticalLabelPosition=bottom;verticalAlign=top;html=1;outlineConnect=0;strokeColor=#6666FF;fillColor=#FFA845;" parent="1UT6SWbpMoqs8P5vgi1c-1" vertex="1">
          <mxGeometry x="159" y="845" width="30" height="60" as="geometry" />
        </mxCell>
        <mxCell id="KNuhM5XpgAfBslxbORyO-27" value="&lt;b&gt;Customer&lt;/b&gt;" style="text;html=1;strokeColor=none;fillColor=none;align=center;verticalAlign=middle;whiteSpace=wrap;rounded=0;" parent="1UT6SWbpMoqs8P5vgi1c-1" vertex="1">
          <mxGeometry x="155" y="820" width="40" height="20" as="geometry" />
        </mxCell>
        <mxCell id="KNuhM5XpgAfBslxbORyO-28" value="&lt;b&gt;?&lt;/b&gt;" style="text;html=1;strokeColor=none;fillColor=none;align=center;verticalAlign=middle;whiteSpace=wrap;rounded=0;" parent="1UT6SWbpMoqs8P5vgi1c-1" vertex="1">
          <mxGeometry x="155" y="630" width="40" height="20" as="geometry" />
        </mxCell>
        <mxCell id="KNuhM5XpgAfBslxbORyO-29" value="&lt;b&gt;?&lt;/b&gt;" style="text;html=1;strokeColor=none;fillColor=none;align=center;verticalAlign=middle;whiteSpace=wrap;rounded=0;" parent="1UT6SWbpMoqs8P5vgi1c-1" vertex="1">
          <mxGeometry x="154" y="435" width="40" height="20" as="geometry" />
        </mxCell>
        <mxCell id="KNuhM5XpgAfBslxbORyO-30" value="&lt;b&gt;BillPlz&lt;/b&gt;" style="text;html=1;strokeColor=none;fillColor=none;align=center;verticalAlign=middle;whiteSpace=wrap;rounded=0;" parent="1UT6SWbpMoqs8P5vgi1c-1" vertex="1">
          <mxGeometry x="155" y="250" width="40" height="20" as="geometry" />
        </mxCell>
        <mxCell id="KNuhM5XpgAfBslxbORyO-31" value="&lt;b&gt;KLIX&lt;/b&gt;" style="text;html=1;strokeColor=none;fillColor=none;align=center;verticalAlign=middle;whiteSpace=wrap;rounded=0;" parent="1UT6SWbpMoqs8P5vgi1c-1" vertex="1">
          <mxGeometry x="155" y="61" width="40" height="20" as="geometry" />
        </mxCell>
        <mxCell id="KNuhM5XpgAfBslxbORyO-32" style="edgeStyle=orthogonalEdgeStyle;rounded=0;orthogonalLoop=1;jettySize=auto;html=1;exitX=0.5;exitY=0;exitDx=0;exitDy=0;" parent="1UT6SWbpMoqs8P5vgi1c-1" source="KNuhM5XpgAfBslxbORyO-33" target="KNuhM5XpgAfBslxbORyO-35" edge="1">
          <mxGeometry relative="1" as="geometry" />
        </mxCell>
        <mxCell id="KNuhM5XpgAfBslxbORyO-33" value="Fill Register Form" style="rounded=0;whiteSpace=wrap;html=1;strokeColor=#666666;fillColor=#f5f5f5;fontColor=#333333;" parent="1UT6SWbpMoqs8P5vgi1c-1" vertex="1">
          <mxGeometry x="240" y="840" width="70" height="55" as="geometry" />
        </mxCell>
        <mxCell id="KNuhM5XpgAfBslxbORyO-34" style="edgeStyle=orthogonalEdgeStyle;rounded=0;orthogonalLoop=1;jettySize=auto;html=1;exitX=1;exitY=0.5;exitDx=0;exitDy=0;entryX=0;entryY=0.5;entryDx=0;entryDy=0;" parent="1UT6SWbpMoqs8P5vgi1c-1" source="KNuhM5XpgAfBslxbORyO-35" target="KNuhM5XpgAfBslxbORyO-37" edge="1">
          <mxGeometry relative="1" as="geometry" />
        </mxCell>
        <mxCell id="KNuhM5XpgAfBslxbORyO-35" value="Submit Register Form" style="rounded=0;whiteSpace=wrap;html=1;strokeColor=#666666;fillColor=#f5f5f5;fontColor=#333333;" parent="1UT6SWbpMoqs8P5vgi1c-1" vertex="1">
          <mxGeometry x="240" y="80" width="70" height="55" as="geometry" />
        </mxCell>
        <mxCell id="KNuhM5XpgAfBslxbORyO-36" style="edgeStyle=orthogonalEdgeStyle;rounded=0;orthogonalLoop=1;jettySize=auto;html=1;exitX=0.5;exitY=1;exitDx=0;exitDy=0;" parent="1UT6SWbpMoqs8P5vgi1c-1" source="KNuhM5XpgAfBslxbORyO-37" target="KNuhM5XpgAfBslxbORyO-45" edge="1">
          <mxGeometry relative="1" as="geometry" />
        </mxCell>
        <mxCell id="KNuhM5XpgAfBslxbORyO-37" value="Create Invoce &amp;amp; Send Notification" style="rounded=0;whiteSpace=wrap;html=1;strokeColor=#666666;fillColor=#f5f5f5;fontColor=#333333;" parent="1UT6SWbpMoqs8P5vgi1c-1" vertex="1">
          <mxGeometry x="340" y="80" width="100" height="55" as="geometry" />
        </mxCell>
        <mxCell id="KNuhM5XpgAfBslxbORyO-38" style="edgeStyle=orthogonalEdgeStyle;rounded=0;orthogonalLoop=1;jettySize=auto;html=1;exitX=0.5;exitY=0;exitDx=0;exitDy=0;entryX=0.5;entryY=1;entryDx=0;entryDy=0;" parent="1UT6SWbpMoqs8P5vgi1c-1" source="KNuhM5XpgAfBslxbORyO-39" target="KNuhM5XpgAfBslxbORyO-43" edge="1">
          <mxGeometry relative="1" as="geometry" />
        </mxCell>
        <mxCell id="KNuhM5XpgAfBslxbORyO-39" value="Pay Invoice" style="rounded=0;whiteSpace=wrap;html=1;strokeColor=#666666;fillColor=#f5f5f5;fontColor=#333333;" parent="1UT6SWbpMoqs8P5vgi1c-1" vertex="1">
          <mxGeometry x="496" y="842.5" width="100" height="55" as="geometry" />
        </mxCell>
        <mxCell id="KNuhM5XpgAfBslxbORyO-40" style="edgeStyle=orthogonalEdgeStyle;rounded=0;orthogonalLoop=1;jettySize=auto;html=1;exitX=1;exitY=0.5;exitDx=0;exitDy=0;entryX=0;entryY=0.5;entryDx=0;entryDy=0;" parent="1UT6SWbpMoqs8P5vgi1c-1" source="KNuhM5XpgAfBslxbORyO-43" target="KNuhM5XpgAfBslxbORyO-47" edge="1">
          <mxGeometry relative="1" as="geometry">
            <Array as="points">
              <mxPoint x="610" y="302" />
              <mxPoint x="610" y="680" />
            </Array>
          </mxGeometry>
        </mxCell>
        <mxCell id="KNuhM5XpgAfBslxbORyO-41" style="edgeStyle=orthogonalEdgeStyle;rounded=0;orthogonalLoop=1;jettySize=auto;html=1;exitX=1;exitY=0.5;exitDx=0;exitDy=0;entryX=0;entryY=0.5;entryDx=0;entryDy=0;" parent="1UT6SWbpMoqs8P5vgi1c-1" source="KNuhM5XpgAfBslxbORyO-43" target="KNuhM5XpgAfBslxbORyO-46" edge="1">
          <mxGeometry relative="1" as="geometry">
            <Array as="points">
              <mxPoint x="610" y="302" />
              <mxPoint x="610" y="485" />
            </Array>
          </mxGeometry>
        </mxCell>
        <mxCell id="KNuhM5XpgAfBslxbORyO-42" style="edgeStyle=orthogonalEdgeStyle;rounded=0;orthogonalLoop=1;jettySize=auto;html=1;exitX=0.5;exitY=0;exitDx=0;exitDy=0;entryX=0.5;entryY=1;entryDx=0;entryDy=0;" parent="1UT6SWbpMoqs8P5vgi1c-1" source="KNuhM5XpgAfBslxbORyO-43" target="KNuhM5XpgAfBslxbORyO-49" edge="1">
          <mxGeometry relative="1" as="geometry" />
        </mxCell>
        <mxCell id="KNuhM5XpgAfBslxbORyO-43" value="Payment Received" style="rounded=0;whiteSpace=wrap;html=1;strokeColor=#666666;fillColor=#f5f5f5;fontColor=#333333;" parent="1UT6SWbpMoqs8P5vgi1c-1" vertex="1">
          <mxGeometry x="496" y="275" width="100" height="55" as="geometry" />
        </mxCell>
        <mxCell id="KNuhM5XpgAfBslxbORyO-44" style="edgeStyle=orthogonalEdgeStyle;rounded=0;orthogonalLoop=1;jettySize=auto;html=1;exitX=1;exitY=0.5;exitDx=0;exitDy=0;entryX=0;entryY=0.5;entryDx=0;entryDy=0;" parent="1UT6SWbpMoqs8P5vgi1c-1" source="KNuhM5XpgAfBslxbORyO-45" target="KNuhM5XpgAfBslxbORyO-39" edge="1">
          <mxGeometry relative="1" as="geometry" />
        </mxCell>
        <mxCell id="KNuhM5XpgAfBslxbORyO-45" value="Get Invoice" style="shape=parallelogram;perimeter=parallelogramPerimeter;whiteSpace=wrap;html=1;fixedSize=1;strokeColor=#666666;fillColor=#f5f5f5;fontColor=#333333;" parent="1UT6SWbpMoqs8P5vgi1c-1" vertex="1">
          <mxGeometry x="330" y="840" width="120" height="60" as="geometry" />
        </mxCell>
        <mxCell id="KNuhM5XpgAfBslxbORyO-46" value="Get Payment" style="shape=parallelogram;perimeter=parallelogramPerimeter;whiteSpace=wrap;html=1;fixedSize=1;strokeColor=#666666;fillColor=#f5f5f5;fontColor=#333333;" parent="1UT6SWbpMoqs8P5vgi1c-1" vertex="1">
          <mxGeometry x="630" y="455" width="120" height="60" as="geometry" />
        </mxCell>
        <mxCell id="KNuhM5XpgAfBslxbORyO-47" value="Get Payment" style="shape=parallelogram;perimeter=parallelogramPerimeter;whiteSpace=wrap;html=1;fixedSize=1;strokeColor=#666666;fillColor=#f5f5f5;fontColor=#333333;" parent="1UT6SWbpMoqs8P5vgi1c-1" vertex="1">
          <mxGeometry x="630" y="650" width="120" height="60" as="geometry" />
        </mxCell>
        <mxCell id="KNuhM5XpgAfBslxbORyO-48" style="edgeStyle=orthogonalEdgeStyle;rounded=0;orthogonalLoop=1;jettySize=auto;html=1;exitX=1;exitY=0.5;exitDx=0;exitDy=0;entryX=0;entryY=0.5;entryDx=0;entryDy=0;" parent="1UT6SWbpMoqs8P5vgi1c-1" source="KNuhM5XpgAfBslxbORyO-49" target="KNuhM5XpgAfBslxbORyO-51" edge="1">
          <mxGeometry relative="1" as="geometry" />
        </mxCell>
        <mxCell id="KNuhM5XpgAfBslxbORyO-49" value="Get Payment Notification" style="rounded=0;whiteSpace=wrap;html=1;strokeColor=#666666;fillColor=#f5f5f5;fontColor=#333333;" parent="1UT6SWbpMoqs8P5vgi1c-1" vertex="1">
          <mxGeometry x="486" y="80" width="120" height="60" as="geometry" />
        </mxCell>
        <mxCell id="KNuhM5XpgAfBslxbORyO-50" style="edgeStyle=orthogonalEdgeStyle;rounded=0;orthogonalLoop=1;jettySize=auto;html=1;exitX=0.5;exitY=1;exitDx=0;exitDy=0;" parent="1UT6SWbpMoqs8P5vgi1c-1" source="KNuhM5XpgAfBslxbORyO-51" target="KNuhM5XpgAfBslxbORyO-53" edge="1">
          <mxGeometry relative="1" as="geometry" />
        </mxCell>
        <mxCell id="KNuhM5XpgAfBslxbORyO-51" value="Send Notification to Distributor" style="rounded=0;whiteSpace=wrap;html=1;strokeColor=#666666;fillColor=#f5f5f5;fontColor=#333333;" parent="1UT6SWbpMoqs8P5vgi1c-1" vertex="1">
          <mxGeometry x="780" y="80" width="120" height="60" as="geometry" />
        </mxCell>
        <mxCell id="KNuhM5XpgAfBslxbORyO-52" style="edgeStyle=orthogonalEdgeStyle;rounded=0;orthogonalLoop=1;jettySize=auto;html=1;exitX=1;exitY=0.5;exitDx=0;exitDy=0;entryX=0;entryY=0.5;entryDx=0;entryDy=0;" parent="1UT6SWbpMoqs8P5vgi1c-1" source="KNuhM5XpgAfBslxbORyO-53" target="KNuhM5XpgAfBslxbORyO-55" edge="1">
          <mxGeometry relative="1" as="geometry" />
        </mxCell>
        <mxCell id="KNuhM5XpgAfBslxbORyO-53" value="Get Notification &amp;amp; Update Stock STB" style="rounded=0;whiteSpace=wrap;html=1;strokeColor=#666666;fillColor=#f5f5f5;fontColor=#333333;" parent="1UT6SWbpMoqs8P5vgi1c-1" vertex="1">
          <mxGeometry x="780" y="650" width="120" height="60" as="geometry" />
        </mxCell>
        <mxCell id="KNuhM5XpgAfBslxbORyO-54" style="edgeStyle=orthogonalEdgeStyle;rounded=0;orthogonalLoop=1;jettySize=auto;html=1;exitX=0.5;exitY=1;exitDx=0;exitDy=0;entryX=0.5;entryY=0;entryDx=0;entryDy=0;" parent="1UT6SWbpMoqs8P5vgi1c-1" source="KNuhM5XpgAfBslxbORyO-55" target="KNuhM5XpgAfBslxbORyO-57" edge="1">
          <mxGeometry relative="1" as="geometry" />
        </mxCell>
        <mxCell id="KNuhM5XpgAfBslxbORyO-55" value="Send STB to Customer" style="rounded=0;whiteSpace=wrap;html=1;strokeColor=#666666;fillColor=#f5f5f5;fontColor=#333333;" parent="1UT6SWbpMoqs8P5vgi1c-1" vertex="1">
          <mxGeometry x="940" y="650" width="120" height="60" as="geometry" />
        </mxCell>
        <mxCell id="KNuhM5XpgAfBslxbORyO-56" style="edgeStyle=orthogonalEdgeStyle;rounded=0;orthogonalLoop=1;jettySize=auto;html=1;exitX=1;exitY=0.5;exitDx=0;exitDy=0;entryX=0;entryY=0.5;entryDx=0;entryDy=0;" parent="1UT6SWbpMoqs8P5vgi1c-1" source="KNuhM5XpgAfBslxbORyO-57" target="KNuhM5XpgAfBslxbORyO-59" edge="1">
          <mxGeometry relative="1" as="geometry" />
        </mxCell>
        <mxCell id="KNuhM5XpgAfBslxbORyO-57" value="Get STB" style="rounded=0;whiteSpace=wrap;html=1;strokeColor=#666666;fillColor=#f5f5f5;fontColor=#333333;" parent="1UT6SWbpMoqs8P5vgi1c-1" vertex="1">
          <mxGeometry x="940" y="837.5" width="120" height="60" as="geometry" />
        </mxCell>
        <mxCell id="KNuhM5XpgAfBslxbORyO-58" style="edgeStyle=orthogonalEdgeStyle;rounded=0;orthogonalLoop=1;jettySize=auto;html=1;exitX=0.5;exitY=0;exitDx=0;exitDy=0;" parent="1UT6SWbpMoqs8P5vgi1c-1" source="KNuhM5XpgAfBslxbORyO-59" target="KNuhM5XpgAfBslxbORyO-61" edge="1">
          <mxGeometry relative="1" as="geometry" />
        </mxCell>
        <mxCell id="KNuhM5XpgAfBslxbORyO-59" value="Activation by. Email,Phone,IMEI" style="rounded=0;whiteSpace=wrap;html=1;strokeColor=#666666;fillColor=#f5f5f5;fontColor=#333333;" parent="1UT6SWbpMoqs8P5vgi1c-1" vertex="1">
          <mxGeometry x="1090" y="837.5" width="120" height="60" as="geometry" />
        </mxCell>
        <mxCell id="KNuhM5XpgAfBslxbORyO-60" style="edgeStyle=orthogonalEdgeStyle;rounded=0;orthogonalLoop=1;jettySize=auto;html=1;exitX=1;exitY=0.5;exitDx=0;exitDy=0;entryX=0;entryY=0.5;entryDx=0;entryDy=0;" parent="1UT6SWbpMoqs8P5vgi1c-1" source="KNuhM5XpgAfBslxbORyO-61" target="KNuhM5XpgAfBslxbORyO-64" edge="1">
          <mxGeometry relative="1" as="geometry" />
        </mxCell>
        <mxCell id="KNuhM5XpgAfBslxbORyO-61" value="Verify User Activation Data" style="rounded=0;whiteSpace=wrap;html=1;strokeColor=#666666;fillColor=#f5f5f5;fontColor=#333333;" parent="1UT6SWbpMoqs8P5vgi1c-1" vertex="1">
          <mxGeometry x="1090" y="77.5" width="120" height="60" as="geometry" />
        </mxCell>
        <mxCell id="KNuhM5XpgAfBslxbORyO-62" style="edgeStyle=orthogonalEdgeStyle;rounded=0;orthogonalLoop=1;jettySize=auto;html=1;exitX=0.5;exitY=1;exitDx=0;exitDy=0;" parent="1UT6SWbpMoqs8P5vgi1c-1" source="KNuhM5XpgAfBslxbORyO-64" target="KNuhM5XpgAfBslxbORyO-65" edge="1">
          <mxGeometry relative="1" as="geometry" />
        </mxCell>
        <mxCell id="KNuhM5XpgAfBslxbORyO-63" style="edgeStyle=orthogonalEdgeStyle;rounded=0;orthogonalLoop=1;jettySize=auto;html=1;exitX=1;exitY=0.5;exitDx=0;exitDy=0;entryX=0;entryY=0.5;entryDx=0;entryDy=0;" parent="1UT6SWbpMoqs8P5vgi1c-1" source="KNuhM5XpgAfBslxbORyO-64" target="KNuhM5XpgAfBslxbORyO-67" edge="1">
          <mxGeometry relative="1" as="geometry" />
        </mxCell>
        <mxCell id="KNuhM5XpgAfBslxbORyO-64" value="Register User Data to KVISION System" style="rounded=0;whiteSpace=wrap;html=1;strokeColor=#666666;fillColor=#f5f5f5;fontColor=#333333;" parent="1UT6SWbpMoqs8P5vgi1c-1" vertex="1">
          <mxGeometry x="1250" y="77.5" width="120" height="60" as="geometry" />
        </mxCell>
        <mxCell id="KNuhM5XpgAfBslxbORyO-65" value="Verify User Data" style="rounded=0;whiteSpace=wrap;html=1;strokeColor=#666666;fillColor=#f5f5f5;fontColor=#333333;" parent="1UT6SWbpMoqs8P5vgi1c-1" vertex="1">
          <mxGeometry x="1250" y="460" width="120" height="60" as="geometry" />
        </mxCell>
        <mxCell id="KNuhM5XpgAfBslxbORyO-66" style="edgeStyle=orthogonalEdgeStyle;rounded=0;orthogonalLoop=1;jettySize=auto;html=1;exitX=1;exitY=0.5;exitDx=0;exitDy=0;entryX=0;entryY=0.5;entryDx=0;entryDy=0;" parent="1UT6SWbpMoqs8P5vgi1c-1" source="KNuhM5XpgAfBslxbORyO-67" target="KNuhM5XpgAfBslxbORyO-69" edge="1">
          <mxGeometry relative="1" as="geometry" />
        </mxCell>
        <mxCell id="KNuhM5XpgAfBslxbORyO-67" value="User Data Approved" style="rounded=0;whiteSpace=wrap;html=1;strokeColor=#666666;fillColor=#f5f5f5;fontColor=#333333;" parent="1UT6SWbpMoqs8P5vgi1c-1" vertex="1">
          <mxGeometry x="1410" y="77.5" width="74" height="60" as="geometry" />
        </mxCell>
        <mxCell id="KNuhM5XpgAfBslxbORyO-68" style="edgeStyle=orthogonalEdgeStyle;rounded=0;orthogonalLoop=1;jettySize=auto;html=1;exitX=0.5;exitY=1;exitDx=0;exitDy=0;entryX=0.5;entryY=0;entryDx=0;entryDy=0;" parent="1UT6SWbpMoqs8P5vgi1c-1" source="KNuhM5XpgAfBslxbORyO-69" target="KNuhM5XpgAfBslxbORyO-70" edge="1">
          <mxGeometry relative="1" as="geometry" />
        </mxCell>
        <mxCell id="KNuhM5XpgAfBslxbORyO-69" value="Send Notification Activication Success to Costomer" style="rounded=0;whiteSpace=wrap;html=1;strokeColor=#666666;fillColor=#f5f5f5;fontColor=#333333;" parent="1UT6SWbpMoqs8P5vgi1c-1" vertex="1">
          <mxGeometry x="1510" y="62.5" width="120" height="90" as="geometry" />
        </mxCell>
        <mxCell id="KNuhM5XpgAfBslxbORyO-70" value="Activation Success" style="rounded=0;whiteSpace=wrap;html=1;strokeColor=#666666;fillColor=#f5f5f5;fontColor=#333333;" parent="1UT6SWbpMoqs8P5vgi1c-1" vertex="1">
          <mxGeometry x="1510" y="840" width="120" height="60" as="geometry" />
        </mxCell>
        <mxCell id="KNuhM5XpgAfBslxbORyO-71" value="Note :&lt;br&gt;1. User register by Filling in the data : name, email, phone number, PIN, address, package , payment method&lt;br&gt;2. User can Activate STB with : Phone number, Email, IMEI" style="shape=process;whiteSpace=wrap;html=1;backgroundOutline=1;strokeColor=#d6b656;fillColor=#fff2cc;align=left;size=0.028662420382165606;" parent="1UT6SWbpMoqs8P5vgi1c-1" vertex="1">
          <mxGeometry x="110" y="980" width="628" height="60" as="geometry" />
        </mxCell>
        <mxCell id="KNuhM5XpgAfBslxbORyO-72" value="Modules Requirements :&lt;br&gt;1. Register user for checkout package from KVISION and STB from BGV.&lt;br&gt;2. Create an invoice and send to customer email.&lt;br&gt;3. List data of user who purchased a packaged.&lt;br&gt;4. Notification system if the user has already paid.&lt;br&gt;5. Notification system to BGV and KVISION if distribusing is completed.&lt;br&gt;6. Notification system to BGV to immediately send STB.&lt;br&gt;7. BGV submit RESI No. if STB already send to customer.&lt;br&gt;8. Notification system to customer that, the STB has been sent.&lt;br&gt;9. Activate STB by email, phone, IMEI, PIN&lt;br&gt;10. List of Channel Package" style="shape=process;whiteSpace=wrap;html=1;backgroundOutline=1;strokeColor=#b85450;fillColor=#f8cecc;align=left;size=0.028662420382165606;" parent="1UT6SWbpMoqs8P5vgi1c-1" vertex="1">
          <mxGeometry x="112" y="1050" width="628" height="170" as="geometry" />
        </mxCell>
        <mxCell id="KNuhM5XpgAfBslxbORyO-73" value="&lt;font style=&quot;font-size: 18px&quot;&gt;User Journey Payment KLIX in Malaysia&lt;/font&gt;" style="rounded=1;whiteSpace=wrap;html=1;strokeColor=#666666;fillColor=#f5f5f5;fontColor=#333333;" parent="1UT6SWbpMoqs8P5vgi1c-1" vertex="1">
          <mxGeometry x="1030" y="980" width="380" height="60" as="geometry" />
        </mxCell>
      </root>
    </mxGraphModel>
  </diagram>
</mxfile>
